<?xml version="1.0" encoding="utf-8"?>
<!-- Generator: Adobe Illustrator 25.2.3, SVG Export Plug-In . SVG Version: 6.00 Build 0)  -->
<svg version="1.1" id="Layer_1" xmlns="http://www.w3.org/2000/svg" xmlns:xlink="http://www.w3.org/1999/xlink" x="0px" y="0px"
	 viewBox="0 0 622 680.2" style="enable-background:new 0 0 622 680.2;" xml:space="preserve">
<style type="text/css">
	.st0{display:none;fill:#454776;}
	.st1{fill:#F2F2F2;}
</style>
<rect x="-200" y="-225.6" class="st0" width="1022" height="1022"/>
<path class="st1" d="M311,16.4c-131.4,0-238,106.6-238,238c0,74.6,34.3,141.1,88,184.8c4.7-3.6,10.6-5.8,17-5.8
	c8.6,0,16.3,3.9,21.5,10c4.9-4.4,11.4-7,18.5-7c4.8,0,9.2,1.2,13.2,3.3c4.9-8,13.8-13.3,23.8-13.3c0.3,0,0.6,0,0.9,0
	c3.1-12.1,14.1-21,27.1-21c4.4,0,8.6,1,12.3,2.8c4.7-17,8.2-33.3,10.6-47.4c-1.4,1.5-3.2,2.2-5.4,2.2h-12.9c-4.5,0-7.7-2.8-7.7-10.3
	h-20.6c-11.4,0-20.6-6.9-20.6-15.5h41.2v-5.2h-41.2l0,0c0-39.7,34-42.9,43.8-90.1v66.4c1.3-2,3-3.8,5.1-5.4v-92
	c0-14.1,2.8-28.2,7.8-38.8c4.5-9.5,10.2-15.3,15.4-15.3s10.9,5.7,15.4,15.3c5,10.6,7.8,24.7,7.8,38.8v92c2.1,1.6,3.9,3.4,5.2,5.4
	v-66.5c9.7,47.3,43.8,50.4,43.8,90.2l0,0h-41.2v5.2H383c0,8.5-9.2,15.5-20.6,15.5h-20.6c0,7.5-3.2,10.3-7.7,10.3h-12.9
	c-2.3,0-4.3-0.8-5.7-2.5c2.8,15,6.9,30.5,11.7,45.7c2.2-0.5,4.5-0.8,6.8-0.8c13,0,24,8.9,27.1,21c0.3,0,0.6,0,0.9,0
	c10.1,0,18.9,5.3,23.8,13.3c3.9-2.1,8.4-3.3,13.2-3.3c7.1,0,13.6,2.7,18.5,7c5.1-6.1,12.8-10,21.5-10c7.5,0,14.4,3,19.4,7.8
	c55.2-43.6,90.6-111.1,90.6-186.8C549,122.9,442.4,16.4,311,16.4z M203.7,377.6c-7.8,11.5-23.5,14.4-34.9,6.5
	c-11.5-7.8-14.4-23.5-6.5-34.9c7.8-11.5,23.5-14.4,34.9-6.5c0.5,0.4,1.1,0.8,1.6,1.2c-9.7-5.6-22.1-2.9-28.5,6.5
	c-6.7,9.8-4.2,23.2,5.6,30c9.4,6.4,22,4.4,29-4.3C204.4,376.5,204.1,377,203.7,377.6z M216.8,238.5c-2-24.7-22.6-44.1-47.8-44.1
	c-26.5,0-48,21.5-48,48c0,25.2,19.4,45.9,44.1,47.8c-1.4,0.1-2.7,0.2-4.1,0.2c-30.9,0-56-25.1-56-56s25.1-56,56-56s56,25.1,56,56
	C217,235.8,216.9,237.1,216.8,238.5z M227.3,151.4c-24.1,5.8-48.4-9.1-54.2-33.2c-5.8-24.1,9.1-48.4,33.2-54.2
	c1.1-0.3,2.2-0.5,3.3-0.6c-18.9,6.2-30.2,25.9-25.5,45.6c5,20.7,25.8,33.4,46.4,28.5c19.7-4.7,32.1-23.8,29.1-43.4
	c0.3,1,0.6,2.1,0.9,3.2C266.3,121.4,251.4,145.6,227.3,151.4z M450.5,91.4c10.8,0,19.5,8.7,19.5,19.5c0,0.5,0,0.9-0.1,1.4
	c-0.7-8.6-7.9-15.3-16.6-15.3c-9.2,0-16.7,7.5-16.7,16.7c0,8.8,6.7,15.9,15.3,16.6c-0.5,0-0.9,0.1-1.4,0.1
	c-10.8,0-19.5-8.7-19.5-19.5C431,100.1,439.7,91.4,450.5,91.4z M469.6,357.2c-37,8.3-73.8-15-82.1-52c-0.4-1.7-0.7-3.3-0.9-5
	c9,29,38.9,46.7,69.1,40c31.7-7.1,51.7-38.6,44.5-70.4c-6.8-30.2-35.6-49.7-65.7-45.4c1.6-0.5,3.2-0.9,4.9-1.3
	c37-8.3,73.8,15,82.1,52C529.9,312.2,506.6,348.9,469.6,357.2z"/>
<g>
	<path class="st1" d="M216.5,632.2l14.4,30.9h-3.3l-4.9-10.2h-13.3l-4.8,10.2h-3.4l14.6-30.9H216.5z M216.1,638.7l-5.3,11.2h10.6
		L216.1,638.7z"/>
	<path class="st1" d="M246.7,642.7l-1.9,2c-1.6-1.5-3.1-2.3-4.6-2.3c-1,0-1.8,0.3-2.5,0.9c-0.7,0.6-1,1.4-1,2.2
		c0,0.7,0.3,1.5,0.8,2.1c0.6,0.7,1.7,1.5,3.5,2.4c2.2,1.1,3.7,2.2,4.5,3.3c0.8,1.1,1.2,2.3,1.2,3.6c0,1.9-0.7,3.5-2,4.8
		c-1.3,1.3-3,2-4.9,2c-1.3,0-2.6-0.3-3.8-0.9c-1.2-0.6-2.2-1.4-3-2.4l1.9-2.1c1.5,1.7,3.1,2.5,4.8,2.5c1.2,0,2.2-0.4,3-1.1
		c0.8-0.8,1.2-1.6,1.2-2.7c0-0.8-0.3-1.6-0.8-2.2c-0.5-0.6-1.8-1.5-3.7-2.4c-2.1-1.1-3.5-2.1-4.2-3.2c-0.7-1-1.1-2.2-1.1-3.5
		c0-1.7,0.6-3.2,1.8-4.3c1.2-1.2,2.7-1.7,4.5-1.7C242.4,639.6,244.5,640.7,246.7,642.7z"/>
	<path class="st1" d="M263.4,642.7l-1.9,2c-1.6-1.5-3.1-2.3-4.6-2.3c-1,0-1.8,0.3-2.5,0.9c-0.7,0.6-1,1.4-1,2.2
		c0,0.7,0.3,1.5,0.8,2.1c0.6,0.7,1.7,1.5,3.5,2.4c2.2,1.1,3.7,2.2,4.5,3.3c0.8,1.1,1.2,2.3,1.2,3.6c0,1.9-0.7,3.5-2,4.8
		c-1.3,1.3-3,2-4.9,2c-1.3,0-2.6-0.3-3.8-0.9c-1.2-0.6-2.2-1.4-3-2.4l1.9-2.1c1.5,1.7,3.1,2.5,4.8,2.5c1.2,0,2.2-0.4,3-1.1
		c0.8-0.8,1.2-1.6,1.2-2.7c0-0.8-0.3-1.6-0.8-2.2c-0.5-0.6-1.8-1.5-3.7-2.4c-2.1-1.1-3.5-2.1-4.2-3.2c-0.7-1-1.1-2.2-1.1-3.5
		c0-1.7,0.6-3.2,1.8-4.3c1.2-1.2,2.7-1.7,4.5-1.7C259.1,639.6,261.2,640.7,263.4,642.7z"/>
	<path class="st1" d="M287.8,655.5l2.5,1.3c-0.8,1.6-1.8,2.9-2.8,3.9c-1.1,1-2.3,1.7-3.6,2.2s-2.8,0.8-4.5,0.8
		c-3.7,0-6.6-1.2-8.7-3.7s-3.1-5.2-3.1-8.3c0-2.9,0.9-5.5,2.7-7.8c2.3-2.9,5.3-4.3,9.1-4.3c3.9,0,7,1.5,9.3,4.4
		c1.6,2.1,2.5,4.7,2.5,7.8h-20.6c0.1,2.7,0.9,4.8,2.5,6.5s3.7,2.5,6.1,2.5c1.2,0,2.3-0.2,3.4-0.6s2-0.9,2.8-1.6
		S286.9,657,287.8,655.5z M287.8,649.3c-0.4-1.6-1-2.8-1.7-3.8s-1.7-1.7-3-2.3c-1.2-0.6-2.5-0.9-3.9-0.9c-2.2,0-4.2,0.7-5.8,2.2
		c-1.2,1-2.1,2.6-2.7,4.7L287.8,649.3L287.8,649.3z"/>
	<path class="st1" d="M299.1,631.7h2.9v8.5h4.7v2.5H302v20.3h-2.9v-20.3h-4v-2.5h4V631.7z"/>
	<path class="st1" d="M322.1,663.1l4.4-30.9h0.5l12.6,25.3l12.4-25.3h0.5l4.5,30.9h-3l-3-22.1l-10.9,22.1h-0.8l-11-22.3l-3,22.3
		H322.1z"/>
	<path class="st1" d="M385.3,640.2v22.8h-2.9v-3.9c-1.2,1.5-2.6,2.6-4.2,3.4c-1.5,0.8-3.2,1.1-5,1.1c-3.2,0-6-1.2-8.3-3.5
		c-2.3-2.3-3.4-5.2-3.4-8.6c0-3.3,1.2-6.1,3.5-8.4s5.1-3.5,8.3-3.5c1.9,0,3.6,0.4,5.1,1.2s2.8,2,4,3.6v-4.2L385.3,640.2L385.3,640.2
		z M373.5,642.5c-1.6,0-3.2,0.4-4.5,1.2c-1.4,0.8-2.5,1.9-3.3,3.4c-0.8,1.5-1.2,3-1.2,4.6c0,1.6,0.4,3.2,1.2,4.6
		c0.8,1.5,1.9,2.6,3.3,3.4s2.9,1.2,4.5,1.2c1.6,0,3.1-0.4,4.6-1.2s2.5-1.9,3.3-3.3c0.8-1.4,1.2-2.9,1.2-4.7c0-2.6-0.9-4.8-2.6-6.6
		C378.2,643.4,376.1,642.5,373.5,642.5z"/>
	<path class="st1" d="M391.9,640.2h2.9v4.1c1.2-1.6,2.5-2.7,3.9-3.5c1.4-0.8,3-1.2,4.7-1.2c1.7,0,3.2,0.4,4.5,1.3s2.3,2,2.9,3.5
		c0.6,1.5,0.9,3.8,0.9,6.9v11.8h-2.9v-10.9c0-2.6-0.1-4.4-0.3-5.3c-0.3-1.5-1-2.7-2-3.4c-1-0.8-2.2-1.1-3.8-1.1
		c-1.8,0-3.4,0.6-4.8,1.8c-1.4,1.2-2.3,2.6-2.8,4.4c-0.3,1.1-0.4,3.2-0.4,6.2v8.4h-2.9L391.9,640.2L391.9,640.2z"/>
	<path class="st1" d="M440.9,640.2v22.8H438v-3.9c-1.2,1.5-2.6,2.6-4.2,3.4c-1.5,0.8-3.2,1.1-5,1.1c-3.2,0-6-1.2-8.3-3.5
		c-2.3-2.3-3.4-5.2-3.4-8.6c0-3.3,1.2-6.1,3.5-8.4s5.1-3.5,8.3-3.5c1.9,0,3.6,0.4,5.1,1.2s2.8,2,4,3.6v-4.2L440.9,640.2L440.9,640.2
		z M429.1,642.5c-1.6,0-3.2,0.4-4.5,1.2c-1.4,0.8-2.5,1.9-3.3,3.4c-0.8,1.5-1.2,3-1.2,4.6c0,1.6,0.4,3.2,1.2,4.6
		c0.8,1.5,1.9,2.6,3.3,3.4s2.9,1.2,4.5,1.2c1.6,0,3.1-0.4,4.6-1.2s2.5-1.9,3.3-3.3c0.8-1.4,1.2-2.9,1.2-4.7c0-2.6-0.9-4.8-2.6-6.6
		C433.8,643.4,431.7,642.5,429.1,642.5z"/>
	<path class="st1" d="M467.2,640.2h2.9v18.2c0,3.2-0.3,5.5-0.8,7c-0.8,2.1-2.1,3.7-4,4.8s-4.2,1.7-6.9,1.7c-2,0-3.7-0.3-5.3-0.8
		s-2.8-1.3-3.8-2.2s-1.9-2.3-2.7-4.1h3.2c0.9,1.5,2,2.6,3.4,3.4s3.1,1.1,5.1,1.1c2,0,3.7-0.4,5.1-1.1s2.4-1.7,3-2.8
		c0.6-1.1,0.9-3,0.9-5.5v-1.2c-1.1,1.4-2.5,2.5-4.1,3.2s-3.3,1.1-5.1,1.1c-2.1,0-4.1-0.5-5.9-1.6s-3.3-2.5-4.3-4.2s-1.5-3.7-1.5-5.8
		c0-2.1,0.5-4.1,1.6-5.9c1-1.8,2.5-3.3,4.4-4.3c1.9-1.1,3.8-1.6,5.9-1.6c1.7,0,3.3,0.3,4.8,1.1c1.5,0.7,2.9,1.9,4.3,3.5L467.2,640.2
		L467.2,640.2z M458.5,642.5c-1.7,0-3.2,0.4-4.6,1.2s-2.5,1.9-3.4,3.3c-0.8,1.4-1.2,3-1.2,4.6c0,2.5,0.8,4.6,2.5,6.2
		c1.7,1.6,3.9,2.5,6.5,2.5c2.7,0,4.9-0.8,6.5-2.4c1.7-1.6,2.5-3.8,2.5-6.4c0-1.7-0.4-3.3-1.1-4.6c-0.8-1.3-1.8-2.4-3.2-3.2
		C461.6,642.9,460.1,642.5,458.5,642.5z"/>
	<path class="st1" d="M495.6,655.5l2.5,1.3c-0.8,1.6-1.8,2.9-2.8,3.9c-1.1,1-2.3,1.7-3.6,2.2s-2.8,0.8-4.5,0.8
		c-3.7,0-6.6-1.2-8.7-3.7s-3.2-5.2-3.2-8.3c0-2.9,0.9-5.5,2.7-7.8c2.3-2.9,5.3-4.3,9.1-4.3c3.9,0,7,1.5,9.3,4.4
		c1.7,2.1,2.5,4.7,2.5,7.8h-20.6c0.1,2.7,0.9,4.8,2.5,6.5c1.6,1.7,3.7,2.5,6.1,2.5c1.2,0,2.3-0.2,3.4-0.6s2-0.9,2.8-1.6
		C493.9,658.1,494.7,657,495.6,655.5z M495.6,649.3c-0.4-1.6-1-2.8-1.7-3.8s-1.7-1.7-3-2.3c-1.2-0.6-2.5-0.9-3.9-0.9
		c-2.2,0-4.2,0.7-5.8,2.2c-1.2,1-2.1,2.6-2.7,4.7L495.6,649.3L495.6,649.3z"/>
	<path class="st1" d="M504.3,640.2h2.9v4c1-1.5,2.1-2.5,3.2-3.2c1.5-0.9,3-1.3,4.7-1.3c1.1,0,2.2,0.2,3.2,0.7s1.8,1,2.4,1.7
		s1.2,1.8,1.6,3.1c1-1.8,2.2-3.2,3.7-4.1s3-1.4,4.7-1.4c1.6,0,3,0.4,4.2,1.2s2.1,1.9,2.7,3.3s0.9,3.6,0.9,6.4v12.5h-3v-12.5
		c0-2.5-0.2-4.1-0.5-5c-0.3-0.9-1-1.7-1.8-2.2c-0.8-0.6-1.8-0.8-3-0.8c-1.4,0-2.7,0.4-3.9,1.3c-1.2,0.8-2,2-2.6,3.4s-0.8,3.7-0.8,7
		v8.9h-2.9v-11.7c0-2.8-0.2-4.6-0.5-5.6s-0.9-1.8-1.8-2.4c-0.8-0.6-1.9-0.9-3-0.9c-1.4,0-2.6,0.4-3.8,1.2s-2.1,1.9-2.6,3.3
		c-0.6,1.4-0.8,3.5-0.8,6.4v9.7h-2.9L504.3,640.2L504.3,640.2z"/>
	<path class="st1" d="M563.9,655.5l2.5,1.3c-0.8,1.6-1.8,2.9-2.8,3.9c-1.1,1-2.3,1.7-3.6,2.2s-2.8,0.8-4.5,0.8
		c-3.7,0-6.6-1.2-8.7-3.7s-3.2-5.2-3.2-8.3c0-2.9,0.9-5.5,2.7-7.8c2.3-2.9,5.3-4.3,9.1-4.3c3.9,0,7,1.5,9.3,4.4
		c1.7,2.1,2.5,4.7,2.5,7.8h-20.6c0.1,2.7,0.9,4.8,2.5,6.5c1.6,1.7,3.7,2.5,6.1,2.5c1.2,0,2.3-0.2,3.4-0.6s2-0.9,2.8-1.6
		C562.2,658.1,563,657,563.9,655.5z M563.9,649.3c-0.4-1.6-1-2.8-1.7-3.8s-1.7-1.7-3-2.3c-1.2-0.6-2.5-0.9-3.9-0.9
		c-2.2,0-4.2,0.7-5.8,2.2c-1.2,1-2.1,2.6-2.7,4.7L563.9,649.3L563.9,649.3z"/>
	<path class="st1" d="M572.6,640.2h2.9v4.1c1.2-1.6,2.5-2.7,3.9-3.5s3-1.2,4.7-1.2c1.7,0,3.2,0.4,4.5,1.3c1.3,0.9,2.3,2,2.9,3.5
		c0.6,1.5,0.9,3.8,0.9,6.9v11.8h-2.9v-10.9c0-2.6-0.1-4.4-0.3-5.3c-0.3-1.5-1-2.7-2-3.4c-1-0.8-2.2-1.1-3.8-1.1
		c-1.8,0-3.4,0.6-4.8,1.8c-1.4,1.2-2.3,2.6-2.8,4.4c-0.3,1.1-0.4,3.2-0.4,6.2v8.4h-2.9L572.6,640.2L572.6,640.2z"/>
	<path class="st1" d="M601.4,631.7h2.9v8.5h4.7v2.5h-4.7v20.3h-2.9v-20.3h-4v-2.5h4V631.7z"/>
</g>
<g>
	<path class="st1" d="M95.5,520.4c-4.8-4.8-9.9-8.4-15.5-10.8c-5.6-2.4-11.6-3.6-17.9-3.6c-13.9,0-25.6,5.2-35.3,15.7
		C17,532.1,12.2,545.6,12.2,562c0,15.8,5,29,15,39.7c10,10.6,21.9,16,35.6,16c6.1,0,11.8-1.1,17-3.3c5.2-2.2,10.5-5.8,15.7-10.7
		v11.2h26.7V508.6H95.5V520.4z M88.4,584.5c-5.5,5.8-12.5,8.7-20.8,8.7c-8.1,0-14.9-3-20.5-8.9c-5.6-5.9-8.3-13.5-8.3-22.7
		c0-9.1,2.7-16.6,8.2-22.4c5.4-5.8,12.3-8.7,20.5-8.7c8.4,0,15.4,2.9,20.9,8.6c5.5,5.7,8.3,13.2,8.3,22.5
		C96.6,571,93.9,578.6,88.4,584.5z"/>
	<path class="st1" d="M209.1,505.9c-6.4,0-12.4,1.2-18,3.6c-5.6,2.4-10.8,6-15.6,10.8v-11.7h-26.5v96.7H149v67h28v-67h-1.4v-1.7
		c5.2,5,10.5,8.5,15.7,10.7s11,3.3,17.1,3.3c13.7,0,25.6-5.3,35.6-16c10-10.6,15-23.9,15-39.7c0-16.4-4.9-29.8-14.5-40.3
		C234.8,511.2,223,505.9,209.1,505.9z M224.1,584.3c-5.6,5.9-12.4,8.9-20.6,8.9c-8.4,0-15.4-2.9-20.9-8.7s-8.3-13.5-8.3-22.9
		c0-9.2,2.8-16.7,8.3-22.5c5.5-5.7,12.5-8.6,20.9-8.6c8.3,0,15.2,2.9,20.7,8.7s8.2,13.3,8.2,22.4
		C232.5,570.9,229.7,578.4,224.1,584.3z"/>
	<path class="st1" d="M359.3,513.4c-8.8-5-18.2-7.5-28.3-7.5c-13.9,0-26.1,4.8-36.8,14.4c-12.2,11.1-18.3,24.9-18.3,41.5
		c0,15.5,5.4,28.7,16.2,39.5s23.8,16.3,39,16.3c10.3,0,19.8-2.5,28.4-7.4s15.4-11.7,20.4-20.5c5-8.7,7.5-18.1,7.5-28.1
		c0-10-2.5-19.2-7.4-27.8S368.1,518.4,359.3,513.4z M352.2,584.1c-5.5,5.8-12.5,8.7-20.8,8.7s-15.2-2.9-20.7-8.6
		c-5.5-5.7-8.2-13.2-8.2-22.5c0-9,2.8-16.4,8.3-22.1c5.5-5.8,12.4-8.6,20.7-8.6c8.5,0,15.4,2.8,20.9,8.5c5.5,5.7,8.2,13.1,8.2,22.2
		C360.5,570.9,357.7,578.3,352.2,584.1z"/>
	<rect x="406.2" y="467.6" class="st1" width="26.7" height="147.3"/>
	<rect x="454.1" y="467.6" class="st1" width="26.7" height="147.3"/>
	<path class="st1" d="M603.9,533.8c-5-8.6-11.8-15.4-20.7-20.4c-8.8-5-18.2-7.5-28.3-7.5c-13.9,0-26.1,4.8-36.8,14.4
		c-12.2,11.1-18.3,24.9-18.3,41.5c0,15.5,5.4,28.7,16.2,39.5c10.8,10.8,23.8,16.3,39,16.3c10.3,0,19.8-2.5,28.4-7.4
		s15.4-11.7,20.4-20.5c5-8.7,7.5-18.1,7.5-28.1C611.3,551.7,608.8,542.4,603.9,533.8z M576.1,584.1c-5.5,5.8-12.5,8.7-20.8,8.7
		c-8.3,0-15.2-2.9-20.7-8.6c-5.5-5.7-8.2-13.2-8.2-22.5c0-9,2.8-16.4,8.3-22.1c5.5-5.8,12.4-8.6,20.7-8.6c8.5,0,15.4,2.8,20.9,8.5
		c5.4,5.7,8.2,13.1,8.2,22.2C584.4,570.9,581.6,578.3,576.1,584.1z"/>
</g>
<path class="st1" d="M297,183.4h28.1c0,0-2-8.9-14.1-12.9C311,170.4,299,172.4,297,183.4z"/>
</svg>
