<?xml version="1.0" encoding="utf-8"?>
<!-- Generator: Adobe Illustrator 25.2.3, SVG Export Plug-In . SVG Version: 6.00 Build 0)  -->
<svg version="1.1" id="Layer_1" xmlns="http://www.w3.org/2000/svg" xmlns:xlink="http://www.w3.org/1999/xlink" x="0px" y="0px"
	 viewBox="0 0 1000 1000" style="enable-background:new 0 0 1000 1000;" xml:space="preserve">
<style type="text/css">
	.st0{display:none;fill:#454776;}
	.st1{fill:#F2F2F2;}
</style>
<rect x="-22" y="-13" class="st0" width="1022" height="1022"/>
<path class="st1" d="M489,229c-131.44,0-238,106.56-238,238c0,74.57,34.31,141.13,87.99,184.76c4.72-3.61,10.61-5.76,17.01-5.76
	c8.62,0,16.33,3.9,21.46,10.02c4.94-4.37,11.43-7.02,18.54-7.02c4.76,0,9.25,1.19,13.18,3.29C414.11,644.32,422.93,639,433,639
	c0.29,0,0.59,0.01,0.88,0.02C436.98,626.93,447.95,618,461,618c4.42,0,8.59,1.03,12.31,2.85c4.73-16.98,8.16-33.26,10.64-47.39
	c-1.36,1.49-3.21,2.15-5.36,2.15H465.7c-4.5,0-7.73-2.83-7.73-10.3h-20.61c-11.38,0-20.6-6.92-20.6-15.45h41.21v-5.15h-41.21v0
	c0-39.73,34.05-42.87,43.79-90.15v66.45c1.29-1.98,3.04-3.79,5.15-5.38v-91.97c0-14.09,2.84-28.25,7.81-38.83
	c4.48-9.55,10.23-15.26,15.38-15.26s10.9,5.7,15.38,15.26c4.96,10.58,7.81,24.73,7.81,38.83v91.97c2.11,1.59,3.86,3.41,5.15,5.38
	v-66.45c9.74,47.28,43.79,50.42,43.79,90.15v0h-41.21v5.15H561c0,8.53-9.23,15.45-20.6,15.45h-20.61c0,7.46-3.22,10.3-7.73,10.3
	h-12.88c-2.31,0-4.29-0.76-5.66-2.5c2.78,14.95,6.87,30.46,11.67,45.73c2.18-0.54,4.46-0.84,6.81-0.84
	c13.05,0,24.02,8.93,27.12,21.02c0.29-0.01,0.58-0.02,0.88-0.02c10.07,0,18.89,5.32,23.82,13.29c3.93-2.1,8.41-3.29,13.18-3.29
	c7.11,0,13.6,2.66,18.54,7.02C600.67,649.9,608.38,646,617,646c7.55,0,14.39,2.99,19.43,7.85C691.59,610.26,727,542.77,727,467
	C727,335.56,620.44,229,489,229z M381.74,590.2c-7.84,11.45-23.49,14.38-34.94,6.53c-11.45-7.84-14.38-23.49-6.53-34.94
	c7.84-11.45,23.49-14.38,34.94-6.53c0.54,0.37,1.06,0.77,1.56,1.17c-9.66-5.6-22.14-2.9-28.55,6.46c-6.72,9.82-4.22,23.22,5.6,29.95
	c9.36,6.41,21.97,4.41,28.95-4.29C382.45,589.11,382.11,589.66,381.74,590.2z M394.83,451.14C392.86,426.44,372.21,407,347,407
	c-26.51,0-48,21.49-48,48c0,25.21,19.44,45.86,44.14,47.83c-1.37,0.1-2.74,0.17-4.14,0.17c-30.93,0-56-25.07-56-56
	c0-30.93,25.07-56,56-56s56,25.07,56,56C395,448.39,394.93,449.77,394.83,451.14z M405.31,364.04
	c-24.13,5.79-48.39-9.08-54.18-33.21c-5.79-24.13,9.08-48.39,33.21-54.18c1.09-0.26,2.17-0.47,3.26-0.64
	c-18.91,6.16-30.21,25.92-25.49,45.59c4.96,20.69,25.75,33.43,46.44,28.47c19.67-4.72,32.15-23.75,29.06-43.39
	c0.33,1.05,0.65,2.11,0.91,3.2C444.31,333.99,429.44,358.25,405.31,364.04z M628.5,304c10.77,0,19.5,8.73,19.5,19.5
	c0,0.47-0.04,0.93-0.07,1.39c-0.71-8.58-7.88-15.32-16.64-15.32c-9.23,0-16.71,7.48-16.71,16.71c0,8.76,6.74,15.93,15.32,16.64
	c-0.46,0.03-0.92,0.07-1.39,0.07c-10.77,0-19.5-8.73-19.5-19.5C609,312.73,617.73,304,628.5,304z M647.65,569.86
	c-37.01,8.32-73.75-14.95-82.07-51.96c-0.37-1.67-0.66-3.33-0.91-5c9,29.03,38.94,46.73,69.11,39.96
	c31.72-7.13,51.66-38.62,44.53-70.35c-6.78-30.17-35.59-49.66-65.68-45.37c1.61-0.49,3.24-0.94,4.91-1.31
	c37.01-8.32,73.75,14.95,82.07,51.95C707.92,524.8,684.66,561.54,647.65,569.86z"/>
<g>
	<path class="st1" d="M394.49,844.82l14.4,30.89h-3.33l-4.86-10.16H387.4l-4.81,10.16h-3.44l14.59-30.89H394.49z M394.1,851.38
		l-5.29,11.18h10.56L394.1,851.38z"/>
	<path class="st1" d="M424.69,855.36l-1.89,1.95c-1.57-1.53-3.11-2.29-4.61-2.29c-0.95,0-1.77,0.31-2.45,0.94
		c-0.68,0.63-1.02,1.36-1.02,2.2c0,0.74,0.28,1.45,0.84,2.12c0.56,0.69,1.74,1.49,3.54,2.41c2.19,1.13,3.67,2.23,4.46,3.28
		c0.77,1.06,1.16,2.26,1.16,3.59c0,1.88-0.66,3.46-1.98,4.77c-1.32,1.3-2.96,1.95-4.94,1.95c-1.32,0-2.58-0.29-3.77-0.86
		c-1.2-0.57-2.19-1.37-2.98-2.37l1.85-2.1c1.5,1.69,3.09,2.54,4.78,2.54c1.18,0,2.18-0.38,3.01-1.13c0.83-0.76,1.24-1.64,1.24-2.67
		c0-0.84-0.27-1.59-0.82-2.25c-0.55-0.64-1.78-1.46-3.7-2.44c-2.06-1.06-3.47-2.11-4.21-3.15c-0.74-1.04-1.12-2.22-1.12-3.55
		c0-1.74,0.59-3.18,1.78-4.33c1.18-1.15,2.68-1.72,4.49-1.72C420.44,852.27,422.56,853.3,424.69,855.36z"/>
	<path class="st1" d="M441.38,855.36l-1.89,1.95c-1.57-1.53-3.11-2.29-4.61-2.29c-0.95,0-1.77,0.31-2.45,0.94
		c-0.68,0.63-1.02,1.36-1.02,2.2c0,0.74,0.28,1.45,0.84,2.12c0.56,0.69,1.74,1.49,3.54,2.41c2.19,1.13,3.67,2.23,4.46,3.28
		c0.77,1.06,1.16,2.26,1.16,3.59c0,1.88-0.66,3.46-1.98,4.77c-1.32,1.3-2.96,1.95-4.94,1.95c-1.32,0-2.58-0.29-3.77-0.86
		c-1.2-0.57-2.19-1.37-2.98-2.37l1.85-2.1c1.5,1.69,3.09,2.54,4.78,2.54c1.18,0,2.18-0.38,3.01-1.13c0.83-0.76,1.24-1.64,1.24-2.67
		c0-0.84-0.27-1.59-0.82-2.25c-0.55-0.64-1.78-1.46-3.7-2.44c-2.06-1.06-3.47-2.11-4.21-3.15c-0.74-1.04-1.12-2.22-1.12-3.55
		c0-1.74,0.59-3.18,1.78-4.33c1.18-1.15,2.68-1.72,4.49-1.72C437.13,852.27,439.25,853.3,441.38,855.36z"/>
	<path class="st1" d="M465.82,868.13l2.48,1.3c-0.81,1.6-1.75,2.88-2.82,3.86c-1.06,0.98-2.26,1.73-3.59,2.24
		c-1.33,0.51-2.84,0.77-4.52,0.77c-3.73,0-6.64-1.22-8.74-3.66s-3.15-5.2-3.15-8.28c0-2.9,0.89-5.48,2.67-7.75
		c2.26-2.88,5.27-4.33,9.06-4.33c3.9,0,7,1.48,9.33,4.43c1.65,2.09,2.49,4.69,2.52,7.81H448.5c0.06,2.65,0.9,4.83,2.54,6.53
		c1.64,1.7,3.67,2.54,6.08,2.54c1.16,0,2.29-0.2,3.4-0.61s2.04-0.94,2.81-1.61S464.92,869.62,465.82,868.13z M465.82,861.97
		c-0.39-1.57-0.96-2.82-1.71-3.76s-1.74-1.69-2.97-2.27c-1.23-0.57-2.53-0.86-3.89-0.86c-2.24,0-4.17,0.72-5.78,2.16
		c-1.18,1.05-2.07,2.62-2.67,4.72H465.82z"/>
	<path class="st1" d="M477.09,844.38h2.94v8.48h4.66v2.54h-4.66v20.3h-2.94v-20.3h-4.01v-2.54h4.01V844.38z"/>
	<path class="st1" d="M500.08,875.71l4.42-30.89h0.5l12.56,25.34L530,844.82h0.49l4.45,30.89h-3.03l-3.05-22.09l-10.92,22.09h-0.79
		l-11.05-22.26l-3.03,22.26H500.08z"/>
	<path class="st1" d="M563.28,852.86v22.84h-2.9v-3.93c-1.23,1.5-2.61,2.62-4.15,3.38c-1.53,0.76-3.21,1.13-5.03,1.13
		c-3.23,0-5.99-1.17-8.28-3.52c-2.29-2.34-3.43-5.2-3.43-8.56c0-3.29,1.15-6.1,3.46-8.44s5.09-3.51,8.33-3.51
		c1.88,0,3.57,0.4,5.09,1.2c1.52,0.8,2.85,2,4,3.59v-4.2H563.28z M551.54,855.11c-1.64,0-3.15,0.4-4.53,1.21
		c-1.38,0.8-2.49,1.93-3.3,3.39c-0.82,1.45-1.23,2.99-1.23,4.61c0,1.61,0.41,3.15,1.24,4.61c0.82,1.47,1.93,2.61,3.32,3.43
		c1.39,0.82,2.88,1.23,4.48,1.23c1.61,0,3.13-0.41,4.57-1.22c1.44-0.81,2.55-1.91,3.32-3.29c0.78-1.38,1.16-2.94,1.16-4.68
		c0-2.64-0.87-4.85-2.61-6.63C556.22,856,554.08,855.11,551.54,855.11z"/>
	<path class="st1" d="M569.9,852.86h2.94v4.09c1.18-1.57,2.48-2.74,3.9-3.52c1.43-0.78,2.98-1.17,4.66-1.17
		c1.71,0,3.22,0.43,4.54,1.3c1.32,0.87,2.3,2.04,2.93,3.51c0.63,1.47,0.94,3.76,0.94,6.87v11.76h-2.94v-10.9
		c0-2.63-0.11-4.39-0.33-5.27c-0.34-1.51-0.99-2.65-1.96-3.41c-0.97-0.76-2.23-1.14-3.78-1.14c-1.78,0-3.37,0.59-4.78,1.76
		c-1.41,1.18-2.33,2.63-2.78,4.37c-0.28,1.13-0.42,3.21-0.42,6.21v8.38h-2.94V852.86z"/>
	<path class="st1" d="M618.88,852.86v22.84h-2.9v-3.93c-1.23,1.5-2.61,2.62-4.15,3.38c-1.53,0.76-3.21,1.13-5.03,1.13
		c-3.23,0-5.99-1.17-8.28-3.52c-2.29-2.34-3.43-5.2-3.43-8.56c0-3.29,1.15-6.1,3.46-8.44s5.09-3.51,8.33-3.51
		c1.88,0,3.57,0.4,5.09,1.2c1.52,0.8,2.85,2,4,3.59v-4.2H618.88z M607.13,855.11c-1.64,0-3.15,0.4-4.53,1.21
		c-1.38,0.8-2.49,1.93-3.3,3.39c-0.82,1.45-1.23,2.99-1.23,4.61c0,1.61,0.41,3.15,1.24,4.61c0.82,1.47,1.93,2.61,3.32,3.43
		c1.39,0.82,2.88,1.23,4.48,1.23c1.61,0,3.13-0.41,4.57-1.22c1.44-0.81,2.55-1.91,3.32-3.29c0.78-1.38,1.16-2.94,1.16-4.68
		c0-2.64-0.87-4.85-2.61-6.63C611.82,856,609.68,855.11,607.13,855.11z"/>
	<path class="st1" d="M645.19,852.86h2.94v18.2c0,3.21-0.28,5.55-0.84,7.03c-0.77,2.1-2.11,3.72-4.01,4.85
		c-1.9,1.13-4.19,1.7-6.87,1.7c-1.96,0-3.72-0.28-5.28-0.83s-2.83-1.3-3.81-2.23c-0.98-0.93-1.88-2.3-2.71-4.1h3.19
		c0.87,1.51,1.99,2.63,3.36,3.36c1.37,0.73,3.08,1.09,5.11,1.09c2,0,3.7-0.37,5.08-1.12s2.37-1.68,2.95-2.81
		c0.59-1.13,0.88-2.95,0.88-5.47v-1.18c-1.11,1.4-2.46,2.47-4.06,3.22c-1.6,0.75-3.29,1.12-5.09,1.12c-2.1,0-4.08-0.52-5.93-1.56
		c-1.85-1.04-3.28-2.45-4.29-4.21s-1.51-3.7-1.51-5.82c0-2.11,0.53-4.08,1.58-5.91c1.05-1.83,2.5-3.27,4.36-4.34
		c1.86-1.06,3.81-1.6,5.87-1.6c1.71,0,3.3,0.35,4.78,1.06c1.48,0.71,2.9,1.87,4.28,3.5V852.86z M636.52,855.11
		c-1.67,0-3.21,0.4-4.64,1.21s-2.55,1.92-3.36,3.34c-0.81,1.42-1.22,2.96-1.22,4.61c0,2.51,0.84,4.58,2.52,6.21
		c1.68,1.64,3.86,2.46,6.53,2.46c2.7,0,4.87-0.81,6.52-2.44c1.65-1.62,2.47-3.76,2.47-6.4c0-1.72-0.38-3.26-1.13-4.61
		c-0.76-1.35-1.83-2.42-3.21-3.2C639.6,855.5,638.11,855.11,636.52,855.11z"/>
	<path class="st1" d="M673.66,868.13l2.48,1.3c-0.81,1.6-1.75,2.88-2.82,3.86c-1.06,0.98-2.26,1.73-3.59,2.24
		c-1.33,0.51-2.84,0.77-4.52,0.77c-3.73,0-6.64-1.22-8.74-3.66s-3.15-5.2-3.15-8.28c0-2.9,0.89-5.48,2.67-7.75
		c2.26-2.88,5.27-4.33,9.06-4.33c3.9,0,7.01,1.48,9.33,4.43c1.65,2.09,2.49,4.69,2.52,7.81h-20.56c0.06,2.65,0.9,4.83,2.54,6.53
		c1.64,1.7,3.66,2.54,6.07,2.54c1.16,0,2.29-0.2,3.4-0.61s2.04-0.94,2.81-1.61C671.93,870.7,672.76,869.62,673.66,868.13z
		 M673.66,861.97c-0.39-1.57-0.96-2.82-1.71-3.76s-1.74-1.69-2.97-2.27c-1.23-0.57-2.53-0.86-3.89-0.86c-2.24,0-4.17,0.72-5.78,2.16
		c-1.18,1.05-2.07,2.62-2.67,4.72H673.66z"/>
	<path class="st1" d="M682.35,852.86h2.94v3.95c1.02-1.46,2.07-2.52,3.15-3.19c1.49-0.9,3.05-1.34,4.69-1.34
		c1.11,0,2.16,0.22,3.15,0.65s1.81,1.01,2.44,1.73c0.63,0.72,1.18,1.75,1.64,3.1c0.98-1.79,2.2-3.15,3.67-4.08s3.04-1.4,4.73-1.4
		c1.58,0,2.97,0.4,4.18,1.2c1.21,0.8,2.1,1.91,2.69,3.34s0.88,3.57,0.88,6.42v12.47h-3v-12.47c0-2.45-0.17-4.13-0.52-5.05
		c-0.35-0.92-0.95-1.66-1.79-2.21c-0.84-0.56-1.85-0.84-3.02-0.84c-1.42,0-2.72,0.42-3.9,1.26c-1.18,0.84-2.04,1.96-2.58,3.36
		s-0.82,3.74-0.82,7.01v8.94h-2.94v-11.69c0-2.76-0.17-4.63-0.51-5.62c-0.34-0.99-0.94-1.78-1.79-2.37
		c-0.85-0.59-1.87-0.89-3.04-0.89c-1.36,0-2.63,0.41-3.81,1.23c-1.18,0.82-2.06,1.92-2.62,3.31c-0.57,1.39-0.85,3.51-0.85,6.36v9.68
		h-2.94V852.86z"/>
	<path class="st1" d="M741.94,868.13l2.48,1.3c-0.81,1.6-1.75,2.88-2.82,3.86c-1.06,0.98-2.26,1.73-3.59,2.24
		c-1.33,0.51-2.84,0.77-4.52,0.77c-3.73,0-6.64-1.22-8.74-3.66s-3.15-5.2-3.15-8.28c0-2.9,0.89-5.48,2.67-7.75
		c2.26-2.88,5.27-4.33,9.06-4.33c3.9,0,7.01,1.48,9.33,4.43c1.65,2.09,2.49,4.69,2.52,7.81h-20.56c0.06,2.65,0.9,4.83,2.54,6.53
		c1.64,1.7,3.66,2.54,6.07,2.54c1.16,0,2.29-0.2,3.4-0.61s2.04-0.94,2.81-1.61C740.21,870.7,741.04,869.62,741.94,868.13z
		 M741.94,861.97c-0.39-1.57-0.96-2.82-1.71-3.76s-1.74-1.69-2.97-2.27c-1.23-0.57-2.53-0.86-3.89-0.86c-2.24,0-4.17,0.72-5.78,2.16
		c-1.18,1.05-2.07,2.62-2.67,4.72H741.94z"/>
	<path class="st1" d="M750.65,852.86h2.94v4.09c1.18-1.57,2.48-2.74,3.91-3.52c1.43-0.78,2.98-1.17,4.66-1.17
		c1.71,0,3.22,0.43,4.55,1.3c1.32,0.87,2.3,2.04,2.93,3.51c0.63,1.47,0.94,3.76,0.94,6.87v11.76h-2.94v-10.9
		c0-2.63-0.11-4.39-0.33-5.27c-0.34-1.51-0.99-2.65-1.96-3.41c-0.96-0.76-2.22-1.14-3.78-1.14c-1.78,0-3.37,0.59-4.78,1.76
		c-1.41,1.18-2.33,2.63-2.78,4.37c-0.28,1.13-0.42,3.21-0.42,6.21v8.38h-2.94V852.86z"/>
	<path class="st1" d="M779.44,844.38h2.94v8.48h4.66v2.54h-4.66v20.3h-2.94v-20.3h-4.01v-2.54h4.01V844.38z"/>
</g>
<g>
	<path class="st1" d="M273.48,733c-4.75-4.82-9.92-8.43-15.51-10.84c-5.59-2.41-11.57-3.61-17.95-3.61
		c-13.85,0-25.62,5.24-35.31,15.72c-9.69,10.48-14.53,23.93-14.53,40.33c0,15.82,5.01,29.05,15.02,39.7
		c10.01,10.64,21.88,15.97,35.6,15.97c6.11,0,11.79-1.09,17.02-3.27c5.23-2.18,10.45-5.75,15.66-10.69v11.23h26.66V721.28h-26.66
		V733z M266.38,797.11c-5.51,5.83-12.46,8.74-20.83,8.74c-8.11,0-14.94-2.96-20.49-8.89c-5.55-5.92-8.32-13.48-8.32-22.66
		c0-9.11,2.73-16.58,8.18-22.41c5.45-5.83,12.3-8.74,20.54-8.74c8.44,0,15.41,2.87,20.92,8.59c5.51,5.73,8.27,13.22,8.27,22.46
		C274.65,783.65,271.9,791.28,266.38,797.11z"/>
	<path class="st1" d="M387.15,718.54c-6.38,0-12.37,1.21-17.97,3.61c-5.6,2.41-10.81,6.02-15.62,10.84v-11.72H327.1V818H327v67h28
		v-67h-1.44v-1.7c5.21,4.95,10.45,8.51,15.72,10.69s10.97,3.27,17.09,3.27c13.74,0,25.62-5.32,35.64-15.97
		c10.02-10.64,15.04-23.88,15.04-39.7c0-16.41-4.85-29.85-14.55-40.33C412.8,723.79,401.02,718.54,387.15,718.54z M402.15,796.96
		c-5.57,5.92-12.42,8.89-20.56,8.89c-8.4,0-15.37-2.91-20.9-8.74c-5.53-5.83-8.3-13.46-8.3-22.9c0-9.24,2.77-16.73,8.3-22.46
		c5.53-5.73,12.5-8.59,20.9-8.59c8.33,0,15.23,2.91,20.7,8.74c5.47,5.83,8.2,13.3,8.2,22.41
		C410.49,783.49,407.71,791.04,402.15,796.96z"/>
	<path class="st1" d="M537.3,726.06c-8.82-5.01-18.25-7.52-28.27-7.52c-13.87,0-26.14,4.82-36.82,14.45
		c-12.17,11.07-18.26,24.9-18.26,41.5c0,15.5,5.39,28.66,16.16,39.5c10.77,10.84,23.78,16.26,39.01,16.26
		c10.35,0,19.82-2.46,28.42-7.37s15.38-11.73,20.36-20.46c4.98-8.72,7.47-18.1,7.47-28.12c0-9.96-2.47-19.24-7.42-27.83
		S546.12,731.08,537.3,726.06z M530.21,796.77c-5.54,5.79-12.49,8.69-20.84,8.69s-15.24-2.86-20.69-8.59
		c-5.45-5.73-8.17-13.22-8.17-22.46c0-8.98,2.75-16.36,8.27-22.12c5.51-5.76,12.41-8.64,20.69-8.64c8.48,0,15.44,2.85,20.88,8.54
		c5.45,5.7,8.17,13.1,8.17,22.22C538.52,783.52,535.75,790.97,530.21,796.77z"/>
	<rect x="584.22" y="680.26" class="st1" width="26.66" height="147.27"/>
	<rect x="632.17" y="680.26" class="st1" width="26.66" height="147.27"/>
	<path class="st1" d="M781.88,746.47c-4.95-8.59-11.83-15.4-20.65-20.41c-8.82-5.01-18.25-7.52-28.27-7.52
		c-13.87,0-26.14,4.82-36.82,14.45c-12.17,11.07-18.26,24.9-18.26,41.5c0,15.5,5.39,28.66,16.16,39.5
		c10.77,10.84,23.78,16.26,39.01,16.26c10.35,0,19.82-2.46,28.42-7.37s15.38-11.73,20.36-20.46c4.98-8.72,7.47-18.1,7.47-28.12
		C789.3,764.35,786.83,755.07,781.88,746.47z M754.13,796.77c-5.54,5.79-12.49,8.69-20.84,8.69c-8.35,0-15.25-2.86-20.69-8.59
		c-5.45-5.73-8.17-13.22-8.17-22.46c0-8.98,2.75-16.36,8.27-22.12c5.51-5.76,12.41-8.64,20.69-8.64c8.48,0,15.44,2.85,20.88,8.54
		c5.44,5.7,8.17,13.1,8.17,22.22C762.45,783.52,759.67,790.97,754.13,796.77z"/>
</g>
<path class="st1" d="M475,396h28.12c0,0-2-8.88-14.06-12.94C489.06,383.06,477,385,475,396z"/>
</svg>
